<mxfile host="app.diagrams.net" modified="2021-11-19T07:54:46.056Z" agent="5.0 (Windows NT 10.0; Win64; x64) AppleWebKit/537.36 (KHTML, like Gecko) Chrome/95.0.4638.69 Safari/537.36" etag="l5G3Y_bIDvppCzORulob" version="15.8.2" type="github">
  <diagram id="-qi01gVP9oJLAhdhJRf0" name="Page-1">
    <mxGraphModel dx="2447" dy="1007" grid="1" gridSize="10" guides="1" tooltips="1" connect="1" arrows="1" fold="1" page="1" pageScale="1" pageWidth="827" pageHeight="1169" math="0" shadow="0">
      <root>
        <mxCell id="0" />
        <mxCell id="1" parent="0" />
        <mxCell id="stpynY7ZR0TXDhYjPENx-1" value="" style="whiteSpace=wrap;html=1;aspect=fixed;fillColor=#f9f7ed;strokeColor=#36393d;" vertex="1" parent="1">
          <mxGeometry x="-10" y="60" width="860" height="860" as="geometry" />
        </mxCell>
        <mxCell id="stpynY7ZR0TXDhYjPENx-3" value="Maintenance" style="rounded=0;whiteSpace=wrap;html=1;" vertex="1" parent="1">
          <mxGeometry x="-10" y="40" width="860" height="20" as="geometry" />
        </mxCell>
        <mxCell id="stpynY7ZR0TXDhYjPENx-7" value="" style="whiteSpace=wrap;html=1;aspect=fixed;" vertex="1" parent="1">
          <mxGeometry x="810" y="40" width="20" height="20" as="geometry" />
        </mxCell>
        <mxCell id="stpynY7ZR0TXDhYjPENx-8" value="" style="whiteSpace=wrap;html=1;aspect=fixed;" vertex="1" parent="1">
          <mxGeometry x="790" y="40" width="20" height="20" as="geometry" />
        </mxCell>
        <mxCell id="stpynY7ZR0TXDhYjPENx-10" value="AnnÃ©e" style="swimlane;fontStyle=0;childLayout=stackLayout;horizontal=1;startSize=30;horizontalStack=0;resizeParent=1;resizeParentMax=0;resizeLast=0;collapsible=1;marginBottom=0;fillColor=#dae8fc;strokeColor=#6c8ebf;" vertex="1" collapsed="1" parent="1">
          <mxGeometry x="675" y="90" width="120" height="30" as="geometry">
            <mxRectangle x="560" y="80" width="140" height="120" as="alternateBounds" />
          </mxGeometry>
        </mxCell>
        <mxCell id="stpynY7ZR0TXDhYjPENx-11" value="2021" style="text;strokeColor=none;fillColor=none;align=left;verticalAlign=middle;spacingLeft=4;spacingRight=4;overflow=hidden;points=[[0,0.5],[1,0.5]];portConstraint=eastwest;rotatable=0;" vertex="1" parent="stpynY7ZR0TXDhYjPENx-10">
          <mxGeometry y="30" width="120" height="30" as="geometry" />
        </mxCell>
        <mxCell id="stpynY7ZR0TXDhYjPENx-12" value="2020" style="text;strokeColor=none;fillColor=none;align=left;verticalAlign=middle;spacingLeft=4;spacingRight=4;overflow=hidden;points=[[0,0.5],[1,0.5]];portConstraint=eastwest;rotatable=0;" vertex="1" parent="stpynY7ZR0TXDhYjPENx-10">
          <mxGeometry y="60" width="120" height="30" as="geometry" />
        </mxCell>
        <mxCell id="stpynY7ZR0TXDhYjPENx-13" value="2019" style="text;strokeColor=none;fillColor=none;align=left;verticalAlign=middle;spacingLeft=4;spacingRight=4;overflow=hidden;points=[[0,0.5],[1,0.5]];portConstraint=eastwest;rotatable=0;" vertex="1" parent="stpynY7ZR0TXDhYjPENx-10">
          <mxGeometry y="90" width="120" height="30" as="geometry" />
        </mxCell>
        <mxCell id="stpynY7ZR0TXDhYjPENx-24" value="" style="html=1;shadow=0;dashed=0;align=center;verticalAlign=middle;shape=mxgraph.arrows2.arrow;dy=0.6;dx=40;direction=south;notch=0;" vertex="1" parent="1">
          <mxGeometry x="680" y="190" width="20" height="10" as="geometry" />
        </mxCell>
        <mxCell id="stpynY7ZR0TXDhYjPENx-27" value="" style="rounded=1;whiteSpace=wrap;html=1;fillColor=#dae8fc;strokeColor=#6c8ebf;" vertex="1" parent="1">
          <mxGeometry x="10" y="145" width="820" height="105" as="geometry" />
        </mxCell>
        <mxCell id="stpynY7ZR0TXDhYjPENx-28" value="" style="rounded=1;whiteSpace=wrap;html=1;fillColor=#dae8fc;strokeColor=#6c8ebf;" vertex="1" parent="1">
          <mxGeometry x="10" y="280" width="820" height="290" as="geometry" />
        </mxCell>
        <mxCell id="stpynY7ZR0TXDhYjPENx-29" value="" style="rounded=1;whiteSpace=wrap;html=1;fillColor=#dae8fc;strokeColor=#6c8ebf;" vertex="1" parent="1">
          <mxGeometry x="10" y="600" width="820" height="310" as="geometry" />
        </mxCell>
        <mxCell id="stpynY7ZR0TXDhYjPENx-34" value="" style="rounded=0;whiteSpace=wrap;html=1;align=left;" vertex="1" parent="1">
          <mxGeometry x="815" y="45" width="10" height="10" as="geometry" />
        </mxCell>
        <mxCell id="stpynY7ZR0TXDhYjPENx-35" value="" style="line;strokeWidth=2;html=1;align=left;" vertex="1" parent="1">
          <mxGeometry x="795" y="45" width="10" height="10" as="geometry" />
        </mxCell>
        <mxCell id="stpynY7ZR0TXDhYjPENx-40" value="" style="whiteSpace=wrap;html=1;aspect=fixed;" vertex="1" parent="1">
          <mxGeometry x="830" y="40" width="20" height="20" as="geometry" />
        </mxCell>
        <mxCell id="stpynY7ZR0TXDhYjPENx-41" value="" style="endArrow=none;html=1;rounded=0;entryX=1;entryY=0;entryDx=0;entryDy=0;exitX=1;exitY=1;exitDx=0;exitDy=0;" edge="1" target="stpynY7ZR0TXDhYjPENx-40" parent="1">
          <mxGeometry width="50" height="50" relative="1" as="geometry">
            <mxPoint x="830" y="60" as="sourcePoint" />
            <mxPoint x="570" y="350" as="targetPoint" />
            <Array as="points">
              <mxPoint x="840" y="50" />
            </Array>
          </mxGeometry>
        </mxCell>
        <mxCell id="stpynY7ZR0TXDhYjPENx-44" value="" style="endArrow=none;html=1;rounded=0;entryX=1;entryY=1;entryDx=0;entryDy=0;exitX=0;exitY=0;exitDx=0;exitDy=0;" edge="1" parent="1">
          <mxGeometry width="50" height="50" relative="1" as="geometry">
            <mxPoint x="830" y="40" as="sourcePoint" />
            <mxPoint x="850" y="60" as="targetPoint" />
            <Array as="points">
              <mxPoint x="850" y="60" />
            </Array>
          </mxGeometry>
        </mxCell>
      </root>
    </mxGraphModel>
  </diagram>
</mxfile>
